<svg xmlns="http://www.w3.org/2000/svg" viewBox="0 0 256 256" aria-hidden="true">
  <defs>
    <linearGradient id="g" x1="0" x2="1" y1="0" y2="1">
      <stop offset="0" stop-color="#38c172"/>
      <stop offset="1" stop-color="#1d9c57"/>
    </linearGradient>
  </defs>
  <rect x="12" y="12" width="232" height="232" rx="56" fill="url(#g)"/>
  <path fill="#fff" d="M78 78h100c14.4 0 26 10.8 26 24v48c0 13.2-11.6 24-26 24H126l-35 22c-2.6 1.7-6 0-6-3.1V174H78c-14.4 0-26-10.8-26-24v-48c0-13.2 11.6-24 26-24zm20 54a10 10 0 1 0 0-20 10 10 0 0 0 0 20zm30 0a10 10 0 1 0 0-20 10 10 0 0 0 0 20zm30 0a10 10 0 1 0 0-20 10 10 0 0 0 0 20z"/>
</svg>

