<svg xmlns="http://www.w3.org/2000/svg" viewBox="0 0 256 256" aria-hidden="true">
  <rect x="12" y="12" width="232" height="232" rx="56" fill="#0A66C2"/>
  <!-- Simplified LinkedIn "in" mark -->
  <circle cx="79" cy="106" r="14" fill="#fff"/>
  <rect x="65" y="126" width="28" height="78" rx="10" fill="#fff"/>
  <path
    fill="#fff"
    d="M121 126h28v11c6-9 16-15 31-15 26 0 43 17 43 48v34c0 6-5 11-11 11h-12c-6 0-11-5-11-11v-30c0-16-7-24-19-24-13 0-20 9-20 25v29c0 6-5 11-11 11h-12c-6 0-11-5-11-11v-67c0-6 5-11 11-11z"
  />
</svg>

