<svg xmlns="http://www.w3.org/2000/svg" viewBox="0 0 256 256" aria-hidden="true">
  <defs>
    <linearGradient id="g" x1="0" x2="1" y1="0" y2="1">
      <stop offset="0" stop-color="#2fe05a"/>
      <stop offset="1" stop-color="#12b04c"/>
    </linearGradient>
  </defs>
  <rect x="12" y="12" width="232" height="232" rx="56" fill="url(#g)"/>
  <path fill="#fff" d="M128 58c-36.7 0-66.5 28.9-66.5 64.5 0 12.1 3.5 23.8 10.1 34l-8.6 31.1 32-8.4c9.8 5.2 20.8 8 33 8 36.7 0 66.5-28.9 66.5-64.5S164.7 58 128 58zm38.3 95.2c-1.6 4.5-8 8.5-13.2 9.6-3.5.7-8 .9-23.2-4.9-19.5-7.5-32-26-33-27.3-1-1.3-7.9-10.4-7.9-19.9 0-9.5 5.1-14.2 6.9-16.2 1.8-2 3.9-2.5 5.2-2.5h3.8c1.2 0 2.9-.4 4.5 3.4 1.6 3.8 5.3 13.1 5.8 14.1.5.9.8 2-.1 3.3-.9 1.3-1.3 2-2.6 3.3-1.3 1.3-2.8 2.9-4 4.1-1.3 1.2-2.6 2.4-1.1 4.7 1.5 2.3 6.7 11 14.4 17.8 9.9 8.8 18.2 11.5 20.5 12.7 2.3 1.2 3.7 1 5.1-.6 1.5-1.6 5.8-6.7 7.4-9 1.6-2.3 3.1-1.9 5.2-1.1 2.2.8 13.8 6.5 16.2 7.7 2.4 1.2 4 1.8 4.6 2.8.6 1 .6 5.9-1 10.4z"/>
</svg>

